<svg xmlns="http://www.w3.org/2000/svg" viewBox="0 0 166 20"><path d="M159.754 15.605h-2.111V9.514c0-.757-.143-1.321-.43-1.693-.286-.372-.732-.558-1.341-.558-.812 0-1.407.263-1.785.791-.379.526-.568 1.403-.568 2.63v4.922h-2.103V5.724h1.646l.295 1.296h.107c.28-.475.696-.855 1.195-1.09a3.863 3.863 0 0 1 1.723-.384c1.521 0 2.528.519 3.024 1.555h.143a3.005 3.005 0 0 1 1.234-1.144c.532-.274 1.14-.411 1.826-.411 1.181 0 2.041.298 2.581.893.54.596.81 1.505.81 2.725v6.441h-2.102V9.514c0-.757-.146-1.321-.435-1.693-.289-.372-.737-.558-1.346-.558-.817 0-1.415.254-1.794.762-.379.51-.569 1.292-.569 2.347v5.234-.001zm-14.959-8.469c-.668 0-1.204.211-1.605.635-.404.423-.643 1.039-.721 1.849h4.491c-.011-.816-.209-1.434-.59-1.853-.381-.421-.907-.631-1.576-.631h.001zm.385 8.647c-1.539 0-2.743-.447-3.61-1.344-.868-.896-1.302-2.131-1.302-3.703 0-1.614.403-2.882 1.208-3.805.805-.924 1.911-1.385 3.319-1.385 1.306 0 2.338.396 3.096 1.188.758.793 1.136 1.882 1.136 3.27v1.134h-6.594c.03.96.289 1.696.779 2.211.489.516 1.177.773 2.067.773a7.72 7.72 0 0 0 1.632-.165 8.535 8.535 0 0 0 1.624-.55v1.706a6.48 6.48 0 0 1-1.557.519c-.525.1-1.124.151-1.798.151zm-7.838-1.697a5.153 5.153 0 0 0 1.539-.24v1.58a4.251 4.251 0 0 1-.899.255 6.231 6.231 0 0 1-1.141.102c-1.992 0-2.989-1.047-2.989-3.144V7.315h-1.35v-.929l1.449-.768.716-2.09h1.298v2.197h2.817v1.59h-2.817v5.288c0 .507.126.88.379 1.121.254.241.587.361.998.361v.001zm-5.958-1.295c0 .965-.352 1.705-1.057 2.22-.703.515-1.712.772-3.023.772-1.319 0-2.378-.199-3.176-.598v-1.813c1.163.536 2.245.803 3.247.803 1.294 0 1.942-.39 1.942-1.169a.93.93 0 0 0-.215-.625c-.144-.168-.379-.341-.707-.519-.443-.231-.9-.434-1.369-.607-1.139-.442-1.91-.881-2.312-1.323-.404-.44-.604-1.011-.604-1.715 0-.845.341-1.502 1.023-1.97.683-.467 1.613-.701 2.788-.701 1.164 0 2.264.236 3.301.706l-.68 1.581c-1.068-.441-1.965-.661-2.692-.661-1.11 0-1.665.316-1.665.947 0 .31.144.572.434.786.289.214.92.509 1.893.884.817.317 1.41.605 1.78.867.369.262.644.565.823.907.178.342.269.752.269 1.228zm-17.976-7.067h2.291l2.013 5.602c.304.798.507 1.548.608 2.251h.072c.054-.327.152-.725.296-1.192.142-.468.9-2.688 2.272-6.661h2.272l-4.231 11.194c-.77 2.054-2.052 3.082-3.848 3.082-.465 0-.919-.05-1.359-.152v-1.661c.315.071.676.107 1.081.107 1.014 0 1.727-.587 2.139-1.76l.367-.929-3.973-9.881zm-.804 6.334c0 1.161-.422 2.073-1.262 2.734-.842.661-2.002.991-3.481.991s-2.689-.228-3.632-.687v-2.02a9.818 9.818 0 0 0 1.901.661 8.065 8.065 0 0 0 1.875.241c.847 0 1.472-.16 1.874-.482.403-.322.604-.753.604-1.295a1.623 1.623 0 0 0-.555-1.242c-.37-.34-1.134-.742-2.291-1.207-1.193-.481-2.034-1.033-2.522-1.652-.49-.619-.734-1.363-.734-2.233 0-1.09.387-1.947 1.163-2.573.776-.625 1.816-.938 3.123-.938 1.252 0 2.499.274 3.74.823l-.68 1.741c-1.165-.488-2.201-.733-3.114-.733-.693 0-1.216.151-1.575.452-.358.301-.537.698-.537 1.192 0 .34.072.63.215.871.144.241.378.469.707.683.328.215.919.498 1.772.849.96.4 1.664.772 2.111 1.117.448.345.776.736.983 1.17.21.435.315.947.315 1.536v.001zm-15.452 3.547H95.04V9.531c0-.763-.154-1.332-.461-1.706-.307-.376-.795-.563-1.462-.563-.889 0-1.539.261-1.951.785-.411.524-.617 1.403-.617 2.636v4.922h-2.103V5.724h1.645l.296 1.296h.108c.298-.47.722-.833 1.27-1.09a4.277 4.277 0 0 1 1.827-.384c2.373 0 3.56 1.206 3.56 3.618v6.441zM79.74 8.923c0 .62.16 1.095.479 1.43.319.333.777.499 1.374.499 1.216 0 1.824-.648 1.824-1.947 0-.643-.15-1.138-.451-1.488-.301-.348-.759-.522-1.373-.522-.609 0-1.07.173-1.383.518-.313.345-.47.849-.47 1.51zm-.903 8.218c0 .453.204.801.612 1.046.409.244.984.366 1.723.366 1.144 0 1.997-.164 2.559-.492.56-.327.841-.762.841-1.304 0-.429-.153-.734-.461-.915-.307-.182-.878-.272-1.713-.272h-1.593c-.602 0-1.081.14-1.436.423s-.532.666-.532 1.148zm7.775-11.417v1.153l-1.692.313c.156.208.284.464.386.768.1.304.151.625.151.965 0 1.018-.351 1.82-1.055 2.403-.704.584-1.673.876-2.907.876a4.76 4.76 0 0 1-.859-.072c-.454.281-.681.608-.681.983 0 .226.106.395.318.509.211.113.6.169 1.167.169h1.726c1.093 0 1.922.233 2.489.697.566.464.85 1.135.85 2.01 0 1.12-.463 1.984-1.387 2.591-.925.607-2.261.911-4.009.911-1.347 0-2.377-.238-3.086-.714-.71-.477-1.064-1.156-1.064-2.038 0-.607.19-1.117.576-1.531.385-.414.923-.702 1.615-.863a1.57 1.57 0 0 1-.693-.576 1.456 1.456 0 0 1-.273-.835c0-.369.104-.682.313-.938.209-.256.519-.509.93-.76a2.76 2.76 0 0 1-1.248-1.075c-.319-.498-.479-1.08-.479-1.746 0-1.073.339-1.904 1.016-2.493.677-.59 1.642-.885 2.895-.885.28 0 .573.02.881.058.307.039.538.08.692.12h3.428zm-13.466 9.881V5.724h2.103v9.881h-2.103zm-.125-12.498c0-.375.103-.663.309-.866.206-.202.499-.304.881-.304.37 0 .658.102.863.304.206.203.309.492.309.866 0 .358-.103.64-.309.844-.205.206-.493.309-.863.309-.381 0-.675-.103-.881-.309-.206-.204-.309-.486-.309-.843v-.001zm-2.147 9.684c0 .965-.352 1.705-1.056 2.22-.703.515-1.712.772-3.024.772-1.318 0-2.377-.199-3.177-.598v-1.813c1.165.536 2.246.803 3.249.803 1.294 0 1.942-.39 1.942-1.169a.93.93 0 0 0-.215-.625c-.144-.168-.38-.341-.708-.519-.443-.231-.9-.434-1.368-.607-1.139-.442-1.911-.881-2.313-1.323-.403-.44-.605-1.011-.605-1.715 0-.845.342-1.502 1.025-1.97.682-.467 1.613-.701 2.788-.701a7.913 7.913 0 0 1 3.301.706l-.68 1.581c-1.068-.441-1.965-.661-2.694-.661-1.108 0-1.663.316-1.663.947 0 .31.144.572.433.786.29.214.92.509 1.893.884.817.317 1.411.605 1.78.867.37.262.644.565.823.907.179.342.269.752.269 1.228zM57.607 7.136c-.669 0-1.205.211-1.606.635-.403.423-.643 1.039-.72 1.849h4.49c-.012-.816-.209-1.434-.59-1.853-.381-.421-.907-.631-1.575-.631h.001zm.384 8.647c-1.539 0-2.743-.447-3.611-1.344-.867-.896-1.301-2.131-1.301-3.703 0-1.614.402-2.882 1.208-3.805.805-.924 1.912-1.385 3.32-1.385 1.305 0 2.338.396 3.095 1.188.757.793 1.136 1.882 1.136 3.27v1.134h-6.594c.031.96.289 1.696.779 2.211.489.516 1.177.773 2.067.773.584 0 1.128-.055 1.632-.165a8.544 8.544 0 0 0 1.625-.55v1.706a6.487 6.487 0 0 1-1.558.519c-.525.1-1.124.151-1.798.151zm-9.162-6.762c0-3.126-1.465-4.689-4.393-4.689h-1.852v9.478h1.521c3.15 0 4.724-1.596 4.724-4.789zm2.255-.07c0 2.155-.599 3.803-1.798 4.943-1.199 1.141-2.926 1.711-5.181 1.711h-3.659V2.544h4.044c2.081 0 3.701.56 4.858 1.68 1.157 1.12 1.736 2.695 1.736 4.727zM.422 16.117c-.324 0-.445-.122-.445-.449V2.733c0-.327.12-.449.445-.449h4.367c1.878 0 3.252.369 4.081 1.094.82.717 1.237 2.003 1.237 3.822 0 2.019-.721 3.387-2.14 4.07l-.074.035-.149.072.077.146 2.152 4.096c.085.16.106.291.063.388-.014.03-.048.11-.276.11H7.064c-.353 0-.586-.139-.732-.432L4.56 11.982l-.043-.09h-.991v3.777c0 .327-.121.449-.448.449H.422v-.001zm3.104-7.2v.159h1.223c.647 0 1.107-.153 1.368-.457.256-.297.38-.761.38-1.419 0-.702-.126-1.182-.384-1.466-.264-.29-.71-.431-1.364-.431H3.526v3.614zm26.91 6.751V2.733c0-.326.121-.449.447-.449h2.677c.325 0 .446.123.446.449v12.935c0 .327-.121.449-.446.449h-2.677c-.325 0-.447-.122-.447-.449zm-18.239 0V2.733c0-.326.12-.449.446-.449h2.677c.326 0 .446.123.446.449v12.935c0 .327-.12.449-.446.449h-2.677c-.326 0-.446-.122-.446-.449zm6.323.449c-.325 0-.446-.122-.446-.449V2.733c0-.326.121-.449.446-.449h3.924c2.054 0 3.562.522 4.483 1.549.927 1.033 1.398 2.84 1.398 5.369 0 2.526-.467 4.333-1.389 5.368-.913 1.026-2.411 1.547-4.451 1.547H18.52zm3.123-3.259v.159h.741c.861 0 1.476-.281 1.831-.838.336-.529.5-1.503.5-2.979 0-1.476-.17-2.451-.522-2.981-.369-.554-.99-.835-1.849-.835h-.701v7.474z"/></svg>